<?xml version="1.0" encoding="UTF-8"?>
<svg version="1.1" xmlns="http://www.w3.org/2000/svg" width="192" height="192">
<path d="M0 0 C63.36 0 126.72 0 192 0 C192 63.36 192 126.72 192 192 C128.64 192 65.28 192 0 192 C0 128.64 0 65.28 0 0 Z " fill="#BE3B22" transform="translate(0,0)"/>
<path d="M0 0 C4.94586526 2.29629459 7.30760518 5.31323865 10 10 C11.0991717 13.29751509 11.14024595 15.76409648 11.16113281 19.23706055 C11.17074036 20.52658127 11.1803479 21.81610199 11.19024658 23.1446991 C11.19510011 24.55870383 11.19937757 25.97271065 11.203125 27.38671875 C11.20736607 28.46140883 11.20736607 28.46140883 11.21169281 29.55780983 C11.22669755 33.36284376 11.23591386 37.16783979 11.24023438 40.97290039 C11.24566519 44.86015362 11.26957291 48.74704692 11.29820633 52.63418865 C11.317077 55.65699676 11.32205146 58.67972326 11.32357025 61.70258522 C11.3265519 63.13237245 11.3344234 64.56215987 11.34775543 65.99188805 C11.45982562 78.95516648 10.70858737 92.79178388 4.3125 104.375 C3.96364746 105.03435547 3.61479492 105.69371094 3.25537109 106.37304688 C-4.34744746 120.31553048 -14.80983881 129.98841229 -30 135 C-35.62274578 136.63591586 -40.59475704 137.32903676 -46.4375 137.25 C-47.18684814 137.24105713 -47.93619629 137.23211426 -48.70825195 137.22290039 C-63.0331369 136.92222581 -75.48278434 131.36791512 -85.81640625 121.390625 C-99.64513334 106.25076636 -104.18398806 88.72456031 -104.24023438 68.61181641 C-104.24997624 66.50513747 -104.28108239 64.3994212 -104.3125 62.29296875 C-104.31902878 60.93490154 -104.32427975 59.57682746 -104.328125 58.21875 C-104.3374707 57.00123047 -104.34681641 55.78371094 -104.35644531 54.52929688 C-103.88638819 49.87508744 -102.61474935 45.87546408 -99.5 42.2578125 C-93.98255109 38.0909891 -89.74405769 37.37533599 -83 38 C-77.13394544 40.03055735 -74.13234309 43.61740654 -70.87866211 48.77880859 C-69.69041831 51.78259911 -69.72533644 54.37486781 -69.69140625 57.6015625 C-69.66626953 58.89707031 -69.64113281 60.19257812 -69.61523438 61.52734375 C-69.58670198 63.56753208 -69.56266124 65.60764939 -69.54370117 67.64794922 C-69.41074425 79.64329304 -68.66832926 90.05273935 -60 99 C-54.52737752 103.27131511 -47.61887594 102.68963139 -41 102 C-35.7761095 100.78389665 -32.18159782 98.84233528 -29.125 94.375 C-24.46271193 85.27077685 -23.57379041 76.68724757 -23.61987495 66.56333351 C-23.62910586 64.34659579 -23.61863007 62.13068237 -23.60325623 59.91398621 C-23.56346849 53.61983241 -23.56195719 47.32575299 -23.56420898 41.03149414 C-23.56426023 37.16184791 -23.54503231 33.29265399 -23.51487541 29.42313194 C-23.50411827 27.24986608 -23.51613288 25.07748749 -23.52870178 22.9042511 C-23.51045005 15.91506457 -23.44890679 10.628491 -19 5 C-12.92475275 -0.49665228 -8.03268209 -0.74649271 0 0 Z " fill="#FEFCFC" transform="translate(142,28)"/>
<path d="M0 0 C4.47413236 2.46605721 7.51255818 5.77511637 9.8125 10.375 C10.63005213 16.65847209 10.11630604 21.49385742 6.34765625 26.6796875 C3.02265963 30.35156672 0.06608351 32.06008877 -4.87109375 32.75 C-10.81078725 33.00789714 -14.62151845 32.49551994 -19.1875 28.375 C-23.85049431 23.2078982 -24.66080278 19.04908606 -24.59765625 12.23828125 C-23.91991693 7.50701536 -21.61818963 4.58537011 -18.1875 1.375 C-12.35073074 -2.68536122 -6.34138139 -2.85421874 0 0 Z " fill="#FDFBFA" transform="translate(62.1875,28.625)"/>
</svg>
